<svg xmlns="http://www.w3.org/2000/svg"  viewBox="0 0 100 100" width="50px" height="50px" fill-rule="evenodd" clip-rule="evenodd" baseProfile="basic"><path fill="#4d9fe0" fill-rule="evenodd" d="M29,67.066V36.933	C29,33.666,31.654,31,34.934,31h30.12C68.334,31,71,33.666,71,36.933v30.133C71,70.333,68.334,73,65.054,73h-30.12	C31.654,73,29,70.333,29,67.066z" clip-rule="evenodd"/><path fill="#ebf1f5" fill-rule="evenodd" d="M35,40	c0-1.653,1.333-3,3-3c1.653,0,3,1.347,3,3c0,1.653-1.347,3-3,3C36.334,43,35,41.653,35,40z" clip-rule="evenodd"/><path fill="#ebf1f5" fill-rule="evenodd" d="M46,66V46h6v3.4	c1.227-2.04,3.453-3.4,6-3.4c3.853,0,7,3.133,7,7v13h-6V55l0,0v-0.507C59,52.573,57.427,51,55.494,51S52,52.573,52,54.493V66H46z" clip-rule="evenodd"/><path fill="#ebf1f5" fill-rule="evenodd" d="M35,66V46h6v20H35z" clip-rule="evenodd"/><path fill="#048" fill-rule="evenodd" d="M65.067,75H0.014v-4	h65.053c2.173,0,3.947-1.76,3.947-3.933V36.933c0-2.173-1.773-3.933-3.947-3.933h-30.12c-2.173,0-3.933,1.76-3.933,3.933v30.133	c0,0.693,0.173,1.36,0.507,1.933h-4.28c-0.147-0.613-0.227-1.267-0.227-1.933V36.933c0-4.373,3.547-7.933,7.933-7.933h30.12	c4.387,0,7.947,3.56,7.947,7.933v30.133C73.014,71.44,69.454,75,65.067,75z M74.2,71h25.813v4h-28.96	C72.414,73.973,73.507,72.586,74.2,71z M34.014,66V46c0-0.547,0.44-1,1-1h6c0.547,0,1,0.453,1,1v20c0,0.547-0.453,1-1,1h-6	C34.454,67,34.014,66.546,34.014,66z M45.014,66V46c0-0.547,0.44-1,1-1h6c0.547,0,1,0.453,1,1v0.773l0.16-0.147	C54.507,45.613,56.187,45,58.014,45c4.413,0,8,3.587,8,8v13c0,0.547-0.453,1-1,1h-6c-0.56,0-1-0.453-1-1V54.493	c0-1.373-1.12-2.493-2.507-2.493c-1.373,0-2.493,1.12-2.493,2.493V66c0,0.547-0.453,1-1,1h-6C45.454,67,45.014,66.546,45.014,66z M40.014,65V47h-4v18H40.014z M51.014,65V54.493c0-2.48,2.013-4.493,4.493-4.493c2.48,0,4.507,2.013,4.507,4.493V65h4V53	c0-3.307-2.693-6-6-6c-2.187,0-4.093,1.16-5.147,2.92c-0.52,0.853-1.853,0.493-1.853-0.52V47h-4v18H51.014z M34.014,40	c0-2.213,1.787-4,4-4c2.2,0,4,1.787,4,4c0,2.213-1.8,4-4,4C35.8,44,34.014,42.213,34.014,40z M40.014,40c0-1.107-0.907-2-2-2	c-1.107,0-2,0.893-2,2c0,1.107,0.893,2,2,2C39.107,42,40.014,41.106,40.014,40z" clip-rule="evenodd"/></svg>