<svg xmlns="http://www.w3.org/2000/svg"  viewBox="0 0 100 100" width="50px" height="50px" fill-rule="evenodd" clip-rule="evenodd" baseProfile="basic"><path fill="#f15663" fill-rule="evenodd" d="M50.002,58.001	l-13-9.533v-14l13,9.533l13.003-9.535l1.997,6.535l-1.997,7.465L50.002,58.001z" clip-rule="evenodd"/><path fill="#c96fe2" fill-rule="evenodd" d="M37.002,50.468	l-10-7.333v-6.133c0-2.759,2.241-5,5-5c1.125,0,2.164,0.371,3,1l2,1.467V50.468z" clip-rule="evenodd"/><path fill="#4d9fe0" fill-rule="evenodd" d="M27.002,61V41.135	l10,7.333v18.533H25.394C26.417,65.236,27.002,63.187,27.002,61z" clip-rule="evenodd"/><path fill="#fed34f" fill-rule="evenodd" d="M63.005,50.467v-16	l1.997-1.465c0.836-0.629,1.875-1,3-1c2.759,0,5,2.241,5,5v6.133L63.005,50.467z" clip-rule="evenodd"/><path fill="#6da981" fill-rule="evenodd" d="M63.005,67.001V48.467	l9.997-7.332V61c0,2.187,0.584,4.236,1.607,6.001H63.005z" clip-rule="evenodd"/><path fill="#048" fill-rule="evenodd" d="M15.007,75.001	l-15-0.003L0.009,71l15,0.001c5.519,0,10-4.481,10-10.001V37.001c0-3.863,3.136-7,7-7c1.571,0,3.029,0.52,4.192,1.395l13.808,10.125	l13.807-10.125c1.163-0.875,2.621-1.395,4.193-1.395c3.863,0,7,3.137,7,7V61c0,5.52,4.48,10.001,9.999,10.001l15-0.001l0.001,3.999	l-15,0.003c-7.729,0-14-6.272-14-14.001V43.841l-6.997,5.132v17.028h5.795c0.227,0.689,0.499,1.357,0.812,2h-7.607	c-0.552,0-1-0.448-1-1V50.44l-11.412,8.368c-0.352,0.259-0.831,0.259-1.183,0l-11.408-8.365v16.559c0,0.552-0.449,1-1,1h-7.612	c0.315-0.643,0.587-1.311,0.813-2h5.799V48.976l-5-3.667v-2.48l4.999,3.667l0.001-10.279l-2.193-1.609	c-0.509-0.384-1.128-0.607-1.807-0.607c-1.655,0-3,1.347-3,3V61C29.009,68.729,22.737,75.001,15.007,75.001z M50.009,56.761	l12.003-8.8v-7.8l2-1.467v7.8l6.997-5.132v-4.361c0-1.653-1.347-3-3-3c-0.68,0-1.299,0.223-1.808,0.607L51.191,45.615	c-0.704,0.516-1.663,0.516-2.367,0l-10.817-7.931l0.001,10.279L50.009,56.761z" clip-rule="evenodd"/></svg>