<svg xmlns="http://www.w3.org/2000/svg"  viewBox="0 0 100 100" width="50px" height="50px" fill-rule="evenodd" clip-rule="evenodd" baseProfile="basic"><circle cx="49.999" cy="50.002" r="23" fill="#b8b8b8" fill-rule="evenodd" clip-rule="evenodd"/><path fill="#ebf1f5" fill-rule="evenodd" d="M54.998,72.002v-9	c0-1.053-0.32-2.053-1-3c5.6,0,9-4.987,9-10c0-2.107-0.747-4.067-2-6c0.507-0.88,1-1.947,1-3c0-1.107-0.4-2-1-3	c-2.707,0-4.32,1.08-6,2c-1.333-0.587-2.88-1-4.987-1c-2.107,0-3.667,0.413-5,1c-1.68-0.92-3.307-2-6-2c-0.6,1-1,1.893-1,3	c0,1.053,0.493,2.12,1,3c-1.253,1.933-2,3.893-2,6c0,5.013,3.4,10,9,10c-0.68,0.947-1,1.947-1,3c-1.013,0-2.52,0-4.013,0	c-1.64,0-2.613-4-6-4c1.68,0,2.787,7,6,7h4l0.013,6H54.998z" clip-rule="evenodd"/><path fill="#048" fill-rule="evenodd" d="M66.957,71.002h33.04v4	H60.211C62.664,74.002,64.931,72.642,66.957,71.002z M-0.002,75.002v-4h50.013c11.587-0.013,20.987-9.413,20.987-21s-9.4-21-21-21	c-11.587,0-21,9.413-21,21c0,8.387,4.933,15.64,12.053,19h-7.293c-5.36-4.587-8.76-11.4-8.76-19c0-13.8,11.2-25,25-25s25,11.2,25,25	s-11.2,25-25,25H-0.002z M43.998,69.002v-2h-3c-2.173,0-3.48-2.16-4.253-3.64c-0.653-1.227-1.32-2.72-1.733-3.24	c-0.067-0.08-0.213-0.147-0.44-0.2c-0.84-0.387-0.693-1.92,0.427-1.92c2.16,0,3.506,1.293,4.413,2.347	c0.493,0.573,0.8,0.973,1.146,1.32c0.333,0.347,0.453,0.333,0.44,0.333h3.107l0.2-0.853l0.12-0.28l-0.653-0.12	c-4.947-1.147-7.76-6.04-7.76-10.747c0-1.773,0.467-3.427,1.267-5l0.587-1.013l-0.12-0.227c-0.387-0.8-0.733-1.76-0.733-2.76	c0-1.387,0.507-2.467,1.133-3.52c0.187-0.293,0.507-0.48,0.867-0.48c2.253,0,3.853,0.693,5.2,1.413l0.88,0.48l0.653-0.24	c1.2-0.4,2.573-0.653,4.267-0.653c1.693,0,3.067,0.253,4.253,0.653l0.653,0.24l0.88-0.48c1.347-0.72,2.947-1.413,5.2-1.413	c0.347,0,0.68,0.187,0.867,0.48c0.627,1.053,1.133,2.133,1.133,3.52c0,1-0.347,1.96-0.733,2.76l-0.12,0.227l0.587,1.013	c0.8,1.573,1.267,3.227,1.267,5c0,4.707-2.813,9.6-7.76,10.747l-0.653,0.12l0.12,0.28c0.2,0.6,0.293,1.213,0.293,1.853v5.027	c-0.653,0.227-1.32,0.4-2,0.547v-5.573c0-0.827-0.253-1.64-0.813-2.413c-0.466-0.667,0-1.587,0.813-1.587c4.88,0,8-4.347,8-9	c0-1.853-0.653-3.64-1.84-5.453c-0.2-0.32-0.214-0.72-0.027-1.04c0.493-0.867,0.867-1.733,0.867-2.507	c0-0.627-0.16-1.187-0.48-1.813l-0.093-0.16l-0.28,0.013c-1.907,0.187-3.16,1-4.653,1.84c-0.28,0.147-0.6,0.16-0.894,0.04	c-1.213-0.533-2.627-0.92-4.587-0.92c-1.96,0-3.387,0.387-4.6,0.92c-0.293,0.12-0.613,0.107-0.894-0.04	c-1.507-0.84-2.76-1.653-4.653-1.84l-0.28-0.013l-0.093,0.16c-0.32,0.627-0.48,1.187-0.48,1.813c0,0.773,0.373,1.64,0.867,2.507	c0.187,0.32,0.174,0.72-0.027,1.04c-1.187,1.813-1.84,3.6-1.84,5.453c0,4.653,3.12,9,8,9c0.813,0,1.28,0.92,0.813,1.587	c-0.56,0.773-0.813,1.573-0.813,2.413c0,0.56-0.453,1-1,1h-4.013c-0.933,0-1.587-0.56-2.213-1.267l-0.28-0.307	c0.92,1.733,1.693,2.573,2.493,2.573h4c0.56,0,1,0.453,1,1v3H43.998z" clip-rule="evenodd"/></svg>